<svg id="Layer_1" data-name="Layer 1" xmlns="http://www.w3.org/2000/svg" viewBox="0 0 283.46 283.46"><defs><style>.cls-1{fill:#919191;}.cls-2{fill:#ed2224;}.cls-3{fill:#f69e1d;}.cls-4{fill:#19ac5b;}.cls-5{fill:#8150a0;}.cls-6{fill:#347fc2;}</style></defs><title>Artboard 1 copy</title><path class="cls-1" d="M117.35,121.46v16.11a16.84,16.84,0,0,1-.59,4.75,7.64,7.64,0,0,1-1.89,3.29,8,8,0,0,1-3.4,1.93,18.47,18.47,0,0,1-5.23.63,15.23,15.23,0,0,1-5.12-.8,8.83,8.83,0,0,1-3.47-2.08,3.77,3.77,0,0,1-1.22-2.61,2.14,2.14,0,0,1,.69-1.65,2.35,2.35,0,0,1,1.67-.64,2.73,2.73,0,0,1,2.13,1.08l.92,1.11a5.37,5.37,0,0,0,1.06,1,4.2,4.2,0,0,0,1.39.59,8.12,8.12,0,0,0,1.87.2,7.56,7.56,0,0,0,3.34-.6,3.41,3.41,0,0,0,1.66-1.68,6.7,6.7,0,0,0,.56-2.3q.08-1.23.12-4a9.1,9.1,0,0,1-3,2.72,8.08,8.08,0,0,1-4,.93A8.39,8.39,0,0,1,100,138a9.05,9.05,0,0,1-3.2-4,14.68,14.68,0,0,1-1.12-5.91,14,14,0,0,1,.68-4.51,9.41,9.41,0,0,1,1.94-3.39,8.28,8.28,0,0,1,2.91-2.09,9.15,9.15,0,0,1,3.62-.7,8.77,8.77,0,0,1,4.08.9,10,10,0,0,1,3.21,2.83v-.75a3.24,3.24,0,0,1,.71-2.24,2.35,2.35,0,0,1,1.83-.79,2.16,2.16,0,0,1,2.13,1,6.89,6.89,0,0,1,.53,3m-16.07,7a7.67,7.67,0,0,0,1.47,5.1,4.77,4.77,0,0,0,3.81,1.73,5,5,0,0,0,2.61-.74,5.41,5.41,0,0,0,2-2.23,7.82,7.82,0,0,0,.77-3.62,8.32,8.32,0,0,0-1.49-5.28,4.76,4.76,0,0,0-3.93-1.89,4.62,4.62,0,0,0-3.81,1.81,8.13,8.13,0,0,0-1.43,5.14"/><path class="cls-1" d="M152.78,128.68a13.09,13.09,0,0,1-.78,4.57,10.06,10.06,0,0,1-2.23,3.6,9.89,9.89,0,0,1-3.5,2.31,12.32,12.32,0,0,1-4.57.8,12,12,0,0,1-4.53-.81,10,10,0,0,1-5.72-5.9,14.1,14.1,0,0,1,0-9.17,10,10,0,0,1,2.22-3.58,9.78,9.78,0,0,1,3.49-2.29,13.26,13.26,0,0,1,9.1,0,9.91,9.91,0,0,1,3.51,2.32A10.06,10.06,0,0,1,152,124.1a13.15,13.15,0,0,1,.76,4.57m-5.57,0a8.3,8.3,0,0,0-1.49-5.28,4.85,4.85,0,0,0-4-1.89,5,5,0,0,0-2.87.84,5.35,5.35,0,0,0-1.91,2.49,11.27,11.27,0,0,0,0,7.64A5.41,5.41,0,0,0,138.8,135a4.9,4.9,0,0,0,2.9.86,4.83,4.83,0,0,0,4-1.9,8.28,8.28,0,0,0,1.49-5.25"/><path class="cls-1" d="M182.55,136.78v-.55a14.06,14.06,0,0,1-2.2,2.08,8.27,8.27,0,0,1-2.36,1.22,8.86,8.86,0,0,1-2.78.42,8.21,8.21,0,0,1-3.69-.84,8.64,8.64,0,0,1-2.94-2.41,10.94,10.94,0,0,1-1.88-3.68,15.63,15.63,0,0,1-.64-4.57q0-5.2,2.54-8.11a8.45,8.45,0,0,1,6.68-2.91,8.94,8.94,0,0,1,4,.82,11.28,11.28,0,0,1,3.21,2.53V112.6a4.13,4.13,0,0,1,.68-2.58,2.31,2.31,0,0,1,1.94-.87,2.42,2.42,0,0,1,1.94.8,3.58,3.58,0,0,1,.68,2.37v24.46a3.39,3.39,0,0,1-.73,2.38,2.45,2.45,0,0,1-1.89.79,2.42,2.42,0,0,1-1.88-.82,3.39,3.39,0,0,1-.74-2.35m-10.91-8.15a9.5,9.5,0,0,0,.7,3.84,5.35,5.35,0,0,0,1.92,2.39,4.72,4.72,0,0,0,2.66.8,4.92,4.92,0,0,0,2.67-.76,5.24,5.24,0,0,0,1.93-2.34,9.41,9.41,0,0,0,.72-3.93,9.19,9.19,0,0,0-.72-3.81,5.71,5.71,0,0,0-2-2.44,4.66,4.66,0,0,0-2.69-.85,4.53,4.53,0,0,0-2.72.87,5.51,5.51,0,0,0-1.86,2.48,9.85,9.85,0,0,0-.66,3.75"/><path class="cls-1" d="M216.7,136.82a17.14,17.14,0,0,1-3.89,2.35,10.89,10.89,0,0,1-4.22.78,8,8,0,0,1-3.75-.84,6.11,6.11,0,0,1-2.49-2.29,5.91,5.91,0,0,1-.88-3.13,5.59,5.59,0,0,1,1.44-3.88,7.22,7.22,0,0,1,4-2.16l2.62-.55q2.09-.42,3.59-.78t3.24-.86a5.81,5.81,0,0,0-.88-3.22q-.78-1-3.24-1a6.76,6.76,0,0,0-3.18.59,5.18,5.18,0,0,0-1.83,1.77q-.76,1.18-1.08,1.55a1.77,1.77,0,0,1-1.35.38,2.37,2.37,0,0,1-1.62-.6,2,2,0,0,1-.68-1.53,4.71,4.71,0,0,1,1-2.85,7.44,7.44,0,0,1,3.23-2.27,14.54,14.54,0,0,1,5.46-.9,15.42,15.42,0,0,1,5.75.86,5.34,5.34,0,0,1,3,2.73,12,12,0,0,1,.86,5c0,1.3,0,2.4,0,3.31s0,1.92,0,3a11.16,11.16,0,0,0,.52,3.26,10.21,10.21,0,0,1,.52,2.18,2,2,0,0,1-.81,1.56,2.67,2.67,0,0,1-1.82.7,2.44,2.44,0,0,1-1.69-.8,12,12,0,0,1-1.77-2.33m-.37-8a28,28,0,0,1-3.55.94c-1.55.33-2.62.58-3.22.73a4.35,4.35,0,0,0-1.71.91,2.34,2.34,0,0,0-.81,1.9,2.82,2.82,0,0,0,1,2.14,3.54,3.54,0,0,0,2.5.88,6.5,6.5,0,0,0,3-.72,4.83,4.83,0,0,0,2-1.86,8.52,8.52,0,0,0,.75-4.15Z"/><path class="cls-1" d="M75.91,136.82A17.14,17.14,0,0,1,72,139.17a10.9,10.9,0,0,1-4.22.78,8,8,0,0,1-3.75-.84,6.15,6.15,0,0,1-2.49-2.29,5.94,5.94,0,0,1-.87-3.13,5.6,5.6,0,0,1,1.44-3.88,7.23,7.23,0,0,1,4-2.16l2.62-.55q2.09-.42,3.59-.78t3.24-.86a5.78,5.78,0,0,0-.88-3.22q-.78-1-3.24-1a6.74,6.74,0,0,0-3.18.59,5.17,5.17,0,0,0-1.83,1.77c-.51.78-.87,1.3-1.08,1.55a1.77,1.77,0,0,1-1.35.38,2.37,2.37,0,0,1-1.62-.6,2,2,0,0,1-.68-1.53,4.71,4.71,0,0,1,1-2.85A7.42,7.42,0,0,1,66,118.25a14.54,14.54,0,0,1,5.47-.9,15.43,15.43,0,0,1,5.75.86,5.35,5.35,0,0,1,3,2.73,12,12,0,0,1,.86,5c0,1.3,0,2.4,0,3.31s0,1.92,0,3a11.16,11.16,0,0,0,.52,3.26,10.21,10.21,0,0,1,.52,2.18,2.05,2.05,0,0,1-.8,1.56,2.69,2.69,0,0,1-1.82.7,2.44,2.44,0,0,1-1.69-.8,11.92,11.92,0,0,1-1.77-2.33m-.36-8a27.82,27.82,0,0,1-3.54.94c-1.55.33-2.63.58-3.22.73a4.36,4.36,0,0,0-1.71.91,2.33,2.33,0,0,0-.81,1.9,2.82,2.82,0,0,0,1,2.14,3.54,3.54,0,0,0,2.5.88,6.5,6.5,0,0,0,3-.72,4.83,4.83,0,0,0,2-1.86,8.52,8.52,0,0,0,.75-4.15Z"/><circle class="cls-2" cx="71.33" cy="163.68" r="10.63"/><circle class="cls-3" cx="106.53" cy="163.68" r="10.63"/><circle class="cls-4" cx="141.73" cy="163.68" r="10.63"/><circle class="cls-5" cx="176.94" cy="163.68" r="10.63"/><circle class="cls-6" cx="212.14" cy="163.68" r="10.63"/></svg>