<svg xmlns="http://www.w3.org/2000/svg" width="140" height="44" viewBox="0 0 140 44"><path fill="#FF5A5F" d="M73.76 11.36c0 1.566-1.262 2.827-2.83 2.827-1.566 0-2.827-1.26-2.827-2.828 0-1.57 1.218-2.83 2.828-2.83 1.62.04 2.83 1.3 2.83 2.83zm-11.663 5.7v.697s-1.35-1.742-4.222-1.742c-4.743 0-8.443 3.613-8.443 8.618 0 4.96 3.656 8.617 8.443 8.617 2.916 0 4.222-1.784 4.222-1.784v.74c0 .347.26.608.61.608h3.524V16.45h-3.52c-.34 0-.61.306-.61.61zm0 10.49c-.653.957-1.96 1.783-3.525 1.783-2.785 0-4.92-1.74-4.92-4.7s2.135-4.7 4.92-4.7c1.523 0 2.916.87 3.525 1.784v5.832zm6.746-11.1h4.177v16.365h-4.177V16.45zm62.41-.435c-2.872 0-4.222 1.742-4.222 1.742V8.573h-4.17v24.242h3.53c.35 0 .61-.305.61-.61v-.74s1.35 1.785 4.22 1.785c4.75 0 8.45-3.654 8.45-8.616s-3.7-8.62-8.4-8.62zm-.696 13.275c-1.61 0-2.873-.827-3.526-1.785v-5.832c.66-.87 2.05-1.784 3.53-1.784 2.79 0 4.92 1.74 4.92 4.7s-2.13 4.7-4.92 4.7zm-9.88-6.18v9.75H116.5v-9.272c0-2.698-.87-3.786-3.22-3.786-1.262 0-2.568.653-3.396 1.61v11.404h-4.177V16.45h3.306c.35 0 .61.306.61.61v.697c1.22-1.263 2.83-1.742 4.44-1.742 1.827 0 3.35.523 4.57 1.568 1.478 1.218 2.045 2.785 2.045 5.527zm-25.112-7.095c-2.872 0-4.222 1.742-4.222 1.742V8.573h-4.177v24.242h3.524c.35 0 .61-.305.61-.61v-.74s1.35 1.785 4.22 1.785c4.746 0 8.445-3.654 8.445-8.616.043-4.962-3.656-8.62-8.4-8.62zm-.697 13.275c-1.61 0-2.87-.827-3.525-1.785v-5.832c.654-.87 2.046-1.784 3.525-1.784 2.786 0 4.92 1.74 4.92 4.7s-2.134 4.7-4.92 4.7zM83.553 16.015c1.262 0 1.915.218 1.915.218v3.873s-3.482-1.175-5.658 1.306v11.446h-4.178V16.45h3.525c.35 0 .61.305.61.61v.697c.783-.915 2.48-1.742 3.786-1.742zm-43.39 15.32c-.218-.522-.436-1.088-.653-1.567-.35-.783-.697-1.523-1-2.22l-.045-.043c-3.003-6.528-6.223-13.143-9.618-19.67l-.13-.263c-.358-.677-.706-1.36-1.045-2.045-.435-.784-.87-1.61-1.567-2.394-1.392-1.74-3.395-2.7-5.527-2.7-2.176 0-4.135.96-5.57 2.612-.653.783-1.132 1.61-1.567 2.394-.34.68-.68 1.36-1.04 2.04l-.13.26c-3.35 6.53-6.61 13.14-9.62 19.67l-.04.09c-.3.7-.65 1.44-1 2.22-.22.48-.43 1-.65 1.57C.4 32.9.22 34.42.44 35.99c.48 3.26 2.657 6 5.66 7.22 1.13.48 2.307.692 3.525.692.35 0 .784-.04 1.133-.086 1.438-.173 2.917-.65 4.354-1.48 1.785-1 3.48-2.435 5.397-4.525 1.915 2.09 3.656 3.52 5.397 4.523 1.44.826 2.92 1.305 4.35 1.48.35.043.79.086 1.137.086 1.22 0 2.44-.218 3.53-.697 3.045-1.22 5.18-4.004 5.656-7.225.344-1.524.17-3.047-.396-4.658zm-19.63 2.263c-2.35-2.96-3.873-5.745-4.394-8.094-.22-1-.27-1.872-.14-2.655.08-.7.35-1.31.69-1.83.825-1.18 2.22-1.92 3.83-1.92 1.61 0 3.045.69 3.83 1.91.35.52.61 1.13.695 1.83.13.78.087 1.69-.13 2.65-.525 2.302-2.048 5.09-4.398 8.09zM37.9 35.644c-.306 2.263-1.83 4.222-3.96 5.093-1.046.434-2.178.565-3.31.434-1.087-.13-2.175-.47-3.306-1.13-1.567-.87-3.134-2.22-4.962-4.22 2.872-3.52 4.613-6.74 5.266-9.62.305-1.35.35-2.56.218-3.7-.174-1.08-.566-2.09-1.175-2.96-1.35-1.96-3.61-3.09-6.13-3.09s-4.78 1.18-6.13 3.09c-.61.87-1 1.88-1.17 2.96-.174 1.14-.13 2.4.217 3.7.655 2.88 2.44 6.14 5.268 9.66-1.784 2.01-3.394 3.36-4.96 4.23-1.13.66-2.22 1-3.307 1.13-1.177.13-2.31-.04-3.31-.43-2.13-.87-3.657-2.83-3.96-5.09-.13-1.082-.045-2.17.39-3.39.13-.436.35-.87.57-1.393.3-.695.65-1.436 1-2.175l.04-.086c3.004-6.484 6.224-13.1 9.576-19.54l.13-.262c.35-.65.696-1.343 1.044-2 .35-.693.74-1.35 1.22-1.912.91-1.042 2.13-1.61 3.48-1.61s2.57.568 3.48 1.61c.48.57.87 1.22 1.22 1.918.35.655.7 1.35 1.046 2l.13.265c3.3 6.467 6.48 12.996 9.53 19.584v.043c.35.698.653 1.48 1 2.178.22.52.437.956.567 1.39.346 1.13.476 2.22.3 3.35z"/></svg>