<?xml version="1.0" encoding="utf-8"?>
<!-- Generator: Adobe Illustrator 22.1.0, SVG Export Plug-In . SVG Version: 6.00 Build 0)  -->
<svg version="1.1" id="Layer_1" xmlns="http://www.w3.org/2000/svg" xmlns:xlink="http://www.w3.org/1999/xlink" x="0px" y="0px"
	 viewBox="0 0 241 169.3" style="enable-background:new 0 0 241 169.3;" xml:space="preserve">
<style type="text/css">
	.st0{fill:#FFFFFF;}
</style>
<path class="st0" d="M121.7,24.6l40.2,26.8l4.7-7.1l-44.9-29.9L74.9,45.6v63.2h31.2v-51h35.4c4.7,0,8.5,3.8,8.5,8.5
	s-3.8,8.5-8.5,8.5H116v8.5h25.5c4.7,0,8.5,3.8,8.5,8.5s-3.8,8.5-8.5,8.5H116v8.5h25.5c9.4,0,17-7.6,17-17c0-5.1-2.3-9.6-5.8-12.8
	c3.5-3.1,5.8-7.7,5.8-12.8c0-9.4-7.6-17-17-17H97.6v51H83.5V50.1L121.7,24.6z"/>
</svg>
