<?xml version="1.0" encoding="utf-8"?>
<!-- Generator: Adobe Illustrator 22.1.0, SVG Export Plug-In . SVG Version: 6.00 Build 0)  -->
<svg version="1.1" id="Layer_1" xmlns="http://www.w3.org/2000/svg" xmlns:xlink="http://www.w3.org/1999/xlink" x="0px" y="0px"
	 viewBox="0 0 241 169.3" style="enable-background:new 0 0 241 169.3;" xml:space="preserve">
<style type="text/css">
	.st0{fill:#FFFFFF;}
</style>
<path class="st0" d="M121.7,24.6l40.2,26.8l4.7-7.1l-44.9-29.9L74.9,45.6v63.2h31.2v-51h35.4c4.7,0,8.5,3.8,8.5,8.5
	c0,4.7-3.8,8.5-8.5,8.5H116v8.5h25.5c4.7,0,8.5,3.8,8.5,8.5c0,4.7-3.8,8.5-8.5,8.5H116v8.5h25.5c9.4,0,17-7.6,17-17
	c0-5.1-2.3-9.6-5.8-12.8c3.5-3.1,5.8-7.7,5.8-12.8c0-9.4-7.6-17-17-17H97.6v51H83.5V50.1L121.7,24.6z"/>
<g>
	<path class="st0" d="M75.9,116.2h3.9c1.8,0,3.1,0.3,3.9,1c0.9,0.7,1.4,1.9,1.4,3.2c0,1.6-0.5,2.5-1.7,3.2c2.1,0.5,3.2,1.8,3.2,4
		c0,2.8-2,4.5-5.3,4.5h-5.3V116.2z M79.9,122.8c1.6,0,2.4-0.7,2.4-2.1c0-1.3-0.8-2-2.4-2H79v4.1H79.9z M80.4,129.6
		c2.1,0,3.1-0.7,3.1-2.1c0-1.6-1-2.3-3.3-2.3H79v4.4H80.4z"/>
	<path class="st0" d="M91.9,121.8v1.3c0.9-1.2,1.8-1.6,3.3-1.6c1.2,0,2.3,0.5,3,1.2c0.6,0.7,0.8,1.4,0.8,2.9v6.5h-2.9v-5.7
		c0-1.8-0.5-2.5-2-2.5c-1.5,0-2.2,0.9-2.2,2.9v5.3H89v-10.3H91.9z"/>
	<path class="st0" d="M102.2,116.2h3.9c1.8,0,3.1,0.3,3.9,1c0.9,0.7,1.4,1.9,1.4,3.2c0,1.6-0.5,2.5-1.7,3.2c2.1,0.5,3.2,1.8,3.2,4
		c0,2.8-2,4.5-5.3,4.5h-5.3V116.2z M106.1,122.8c1.6,0,2.4-0.7,2.4-2.1c0-1.3-0.8-2-2.4-2h-0.9v4.1H106.1z M106.6,129.6
		c2.1,0,3.1-0.7,3.1-2.1c0-1.6-1-2.3-3.3-2.3h-1.2v4.4H106.6z"/>
	<path class="st0" d="M123,124.9c-0.8-0.6-1.5-0.9-2.3-0.9c-1.7,0-3,1.2-3,2.9c0,1.7,1.3,2.9,3,2.9c0.8,0,1.5-0.3,2.3-0.9v2.8
		c-1,0.5-1.7,0.6-2.7,0.6c-3.1,0-5.6-2.4-5.6-5.4c0-3.2,2.4-5.5,5.7-5.5c0.9,0,1.7,0.2,2.5,0.6V124.9z"/>
	<path class="st0" d="M135.9,121.8v10.3H133v-1.3c-0.9,1.1-1.9,1.7-3.4,1.7c-2.9,0-5.1-2.4-5.1-5.5c0-3.1,2.2-5.4,5-5.4
		c1.4,0,2.4,0.5,3.4,1.7v-1.3H135.9z M127.6,126.9c0,1.6,1.3,2.9,2.9,2.9c1.6,0,2.9-1.3,2.9-2.9c0-1.6-1.3-2.9-2.9-2.9
		C128.9,124,127.6,125.3,127.6,126.9z"/>
	<path class="st0" d="M141.5,121.8v1.6c0.7-1.3,1.7-1.9,3-1.9c0.5,0,0.7,0,1.3,0.3l-0.4,2.7c-0.5-0.3-0.8-0.4-1.4-0.4
		c-1.7,0-2.5,1-2.5,3.1v4.9h-2.9v-10.3H141.5z"/>
	<path class="st0" d="M149.6,127.4c0.1,1.8,1,2.8,2.5,2.8c1.1,0,1.8-0.4,2.4-1.4l2.7,0.4c-0.9,2.1-2.6,3.2-5,3.2
		c-3.4,0-5.6-2.1-5.6-5.5c0-3.3,2.1-5.5,5.4-5.5c3.3,0,5.3,2.1,5.3,5.5v0.4H149.6z M154.6,125.6c-0.3-1.3-1.2-2-2.4-2
		c-1.3,0-2.2,0.7-2.4,2H154.6z"/>
	<path class="st0" d="M165.1,124.2c-0.6-0.5-1.1-0.7-1.7-0.7c-0.6,0-1.1,0.4-1.1,0.9c0,0.5,0.3,0.7,1.6,1.2c2.4,0.9,3.1,1.6,3.1,3.2
		c0,2.2-1.8,3.7-4.3,3.7c-1.5,0-2.9-0.6-3.9-1.7l1.5-1.8c0.8,0.8,1.6,1.2,2.4,1.2c0.8,0,1.3-0.5,1.3-1.1c0-0.6-0.3-0.8-1.6-1.3
		c-1.3-0.5-1.5-0.6-2-0.9c-0.7-0.5-1-1.2-1-2.1c0-1.9,1.5-3.3,3.6-3.3c1.4,0,2.4,0.3,3.4,1.1L165.1,124.2z"/>
</g>
</svg>
