<?xml version="1.0" encoding="utf-8"?>
<!-- Generator: Adobe Illustrator 22.1.0, SVG Export Plug-In . SVG Version: 6.00 Build 0)  -->
<svg version="1.1" id="Layer_1" xmlns="http://www.w3.org/2000/svg" xmlns:xlink="http://www.w3.org/1999/xlink" x="0px" y="0px"
	 viewBox="0 0 414 123.3" style="enable-background:new 0 0 414 123.3;" xml:space="preserve">
<style type="text/css">
	.st0{fill:#231F20;}
</style>
<path d="M68.7,24.6l40.2,26.8l4.7-7.1L68.7,14.4L21.9,45.6v63.2h31.2v-51h35.4c4.7,0,8.5,3.8,8.5,8.5c0,4.7-3.8,8.5-8.5,8.5H63v8.5
	h25.5c4.7,0,8.5,3.8,8.5,8.5c0,4.7-3.8,8.5-8.5,8.5H63v8.5h25.5c9.4,0,17-7.6,17-17c0-5.1-2.3-9.6-5.8-12.8
	c3.5-3.1,5.8-7.7,5.8-12.8c0-9.4-7.6-17-17-17H44.6v51H30.5V50.1L68.7,24.6z"/>
<g>
	<path class="st0" d="M126.5,43.6h11.1c5.2,0,8.7,0.9,11,2.7c2.5,2,4,5.5,4,9.2c0,4.5-1.3,7-4.9,9.1c6,1.3,9.1,5.2,9.1,11.3
		c0,8-5.7,12.8-15.2,12.8h-15.2V43.6z M138.1,62.6c4.7,0,7-2,7-6c0-3.9-2.4-6-6.9-6h-2.7v12H138.1z M139.1,81.6
		c5.6,0,8.4-1.9,8.4-5.8c0-4.3-2.6-6.2-8.9-6.2h-3.2v12H139.1z"/>
	<path class="st0" d="M172.5,59.6v3.5c2.6-3.3,5.2-4.6,9.3-4.6c3.4,0,6.5,1.3,8.4,3.5c1.7,2,2.3,4.1,2.3,8.1v18.5h-8V72.5
		c0-5.1-1.6-7-5.7-7c-4.3,0-6.3,2.6-6.3,8.1v15.1h-8v-29H172.5z"/>
	<path class="st0" d="M201.5,43.6h11.1c5.2,0,8.7,0.9,11,2.7c2.5,2,4,5.5,4,9.2c0,4.5-1.3,7-4.9,9.1c6,1.3,9.1,5.2,9.1,11.3
		c0,8-5.7,12.8-15.2,12.8h-15.2V43.6z M213.1,62.6c4.7,0,7-2,7-6c0-3.9-2.4-6-6.9-6h-2.7v12H213.1z M214.1,81.6
		c5.6,0,8.4-1.9,8.4-5.8c0-4.3-2.6-6.2-8.9-6.2h-3.2v12H214.1z"/>
	<path class="st0" d="M260.5,68.8c-2.4-1.8-4.2-2.5-6.6-2.5c-4.9,0-8.4,3.5-8.4,8.2c0,4.8,3.6,8.2,8.6,8.2c2.4,0,4.3-0.7,6.5-2.4v8
		c-2.7,1.3-4.7,1.8-7.7,1.8c-8.8,0-15.8-6.8-15.8-15.4c0-9,6.9-15.7,16.2-15.7c2.6,0,4.9,0.5,7.2,1.8V68.8z"/>
	<path class="st0" d="M296.5,59.6v29h-8v-3.8c-2.6,3.2-5.4,4.7-9.3,4.7c-8.1,0-14.2-6.6-14.2-15.5c0-8.7,6.1-15.3,14-15.3
		c3.8,0,6.7,1.4,9.5,4.7v-3.8H296.5z M273.4,74.4c0,4.5,3.7,8.2,8.2,8.2c4.5,0,8.2-3.6,8.2-8.2c0-4.6-3.6-8.2-8.2-8.2
		C277,66.3,273.4,69.9,273.4,74.4z"/>
	<path class="st0" d="M312.5,59.6v4.4c2.1-3.7,4.7-5.4,8.3-5.4c1.3,0,2,0.1,3.5,0.7l-1.1,7.6c-1.4-0.7-2.3-1-3.8-1
		c-4.7,0-6.9,2.8-6.9,8.7v13.9h-8v-29H312.5z"/>
	<path class="st0" d="M335.6,75.6c0.2,5.1,2.7,7.8,7.2,7.8c3,0,5.1-1.1,6.9-3.9l7.6,1.2c-2.4,5.9-7.4,9.1-14.2,9.1
		c-9.6,0-15.8-6.1-15.8-15.5c0-9.4,6-15.6,15.3-15.6c9.2,0,15,6,15,15.6v1.2H335.6z M350,70.6c-0.9-3.8-3.3-5.8-6.9-5.8
		c-3.7,0-6.1,2.1-6.9,5.8H350z"/>
	<path class="st0" d="M380,66.7c-1.8-1.3-3.2-2-4.9-2c-1.8,0-3.2,1.1-3.2,2.4c0,1.4,0.8,2,4.7,3.3c6.9,2.4,8.9,4.5,8.9,9.1
		c0,6.1-5.1,10.4-12.3,10.4c-4.2,0-8.2-1.8-11.1-4.9l4.3-5c2.4,2.4,4.5,3.4,6.9,3.4c2.2,0,3.8-1.3,3.8-3.2c0-1.7-0.8-2.3-4.5-3.6
		c-3.6-1.3-4.3-1.6-5.6-2.6c-2-1.4-2.9-3.4-2.9-6c0-5.5,4.3-9.4,10.2-9.4c3.8,0,6.8,0.9,9.7,3.1L380,66.7z"/>
</g>
</svg>
