<svg xmlns="http://www.w3.org/2000/svg" width="180" height="31" viewBox="0 0 180 31"><g fill="none"><path fill="#223F6C" d="M72.63.618c1.517-.49 3.28.608 3.486 2.195.302 1.512-.898 3.09-2.434 3.204-1.43.188-2.865-.928-3.017-2.364-.212-1.318.673-2.692 1.965-3.035zm-18.1.627c.89.005 1.78-.01 2.67 0 .577.01 1.207.134 1.616.574.456.48.514 1.18.516 1.81-.007 3.14 0 6.29-.005 9.43.635-.04 1.497.13 1.885-.52 1.09-1.67 2.16-3.34 3.25-5.01h5.397c-1.44 2.14-2.89 4.28-4.33 6.42-.27.41-.58.78-.91 1.13.65.64 1 1.51 1.44 2.3 1.13 2.28 2.54 4.41 3.83 6.61-1.43-.02-2.86.03-4.29-.03-.84-.02-1.63-.48-2.03-1.22-.97-1.71-1.84-3.47-2.78-5.19-.29-.53-.99-.36-1.48-.426-.01 2.286 0 4.57-.01 6.853-1.6 0-3.2-.003-4.79 0-.01-7.59 0-15.18 0-22.773zm28.734 8.138c1.06-1.222 2.582-2.016 4.194-2.17 1.71-.16 3.602.086 4.93 1.266 1.207 1.05 1.69 2.68 1.788 4.23.06 3.76-.056 7.54.06 11.3-.936-.02-1.874.05-2.807-.04-.66-.05-1.33-.36-1.67-.95-.4-.72-.33-1.57-.33-2.36 0-2.25.01-4.49-.01-6.73-.02-.85-.24-1.93-1.16-2.23-1.25-.34-2.65.05-3.57.95-.91.89-1.3 2.2-1.34 3.45-.01 2.63 0 5.26 0 7.89h-4.76V7.53c1.15.07 2.35-.18 3.46.24.68.25 1.02.947 1.19 1.61zM71.188 7.538c1.164.06 2.37-.165 3.497.206.842.295 1.255 1.212 1.253 2.056.013 4.74 0 9.478.006 14.217-1.57.002-3.138.002-4.71 0 .025-5.494-.033-10.985-.046-16.48zM23.95 7.384c2.714-.514 5.717.08 7.805 1.957 3.415 3.02 3.644 8.84.597 12.2-3.295 3.67-9.826 3.67-13.073-.06-3.14-3.52-2.69-9.72 1.17-12.55 1.02-.77 2.23-1.29 3.49-1.53zm.75 4.01c-1.004.293-1.846 1.035-2.304 1.968-1.013 2.102-.623 5.12 1.51 6.38 1.668.976 4.068.5 5.127-1.154 1.148-1.807 1.078-4.388-.295-6.06-.965-1.144-2.623-1.548-4.038-1.135zm17.57-3.99c2.384-.464 4.996-.12 7.03 1.262 1.72 1.123 2.93 2.956 3.377 4.953.6 2.67.058 5.69-1.78 7.78-3.226 3.75-9.76 3.84-13.086.18-2.98-3.24-2.89-8.83.23-11.94 1.14-1.16 2.65-1.91 4.23-2.25zm.897 3.98c-1.363.366-2.377 1.576-2.694 2.925-.484 1.91 0 4.28 1.775 5.38 1.428.87 3.426.71 4.655-.45 1.04-.96 1.413-2.44 1.344-3.81-.047-1.29-.574-2.62-1.62-3.42-.962-.76-2.292-.95-3.46-.64zm57.023-3.68c2.425-.97 5.476-.784 7.485 1 .283-.552.764-1.018 1.393-1.13.947-.16 1.912-.05 2.866-.083.004 5.06.002 10.11.002 15.16 0 1.85-.556 3.75-1.836 5.12-1.653 1.8-4.154 2.56-6.54 2.64-2.223.04-4.465-.49-6.414-1.57.375-.92.668-1.87 1.14-2.75.236-.45.776-.69 1.278-.6.79.15 1.536.48 2.338.58 1.405.21 2.997.18 4.18-.7.9-.68 1.175-1.87 1.11-2.95-1.503 1.26-3.6 1.48-5.473 1.14-1.88-.35-3.58-1.52-4.58-3.14-1.36-2.165-1.63-4.88-1.12-7.346.46-2.29 1.95-4.452 4.16-5.332zm2.366 3.847c-1.064.41-1.65 1.51-1.83 2.58-.253 1.43-.072 3.02.814 4.21 1.142 1.55 3.82 1.64 4.972.06.786-1.11.824-2.55.73-3.86-.094-1.1-.536-2.32-1.59-2.84-.954-.45-2.11-.5-3.097-.13zM.154 3.65C.076 2.37 1.242 1.215 2.51 1.248h5.797c1.903.043 3.917.603 5.262 2.02 2.07 2.14 1.95 5.946-.19 8-.25.235-.52.45-.78.673 1.1.56 2.12 1.35 2.67 2.48.99 2.03.87 4.62-.39 6.51-1.4 2.07-3.98 2.95-6.38 3-2.78.01-5.57 0-8.35.01V3.65zm4.953 10.53c-.47.296-.547.892-.56 1.4-.004 1.486.002 2.97.002 4.454 1.36-.007 2.74.01 4.11-.003.93-.02 1.89-.51 2.33-1.36.66-1.28.53-3.08-.61-4.06-.94-.78-2.22-.68-3.36-.69-.64.03-1.36-.1-1.93.26zm-.13-8.82c-.383.34-.415.882-.43 1.36-.004 1.223.004 2.445 0 3.67 1.192-.006 2.384.016 3.575-.006.713-.015 1.433-.326 1.87-.902.86-1.173.81-3.107-.416-4.012-.84-.614-1.93-.442-2.905-.47-.56.015-1.24-.075-1.69.36z"/><path fill="#2BA1CF" d="M159.55 9.507c.983-1.18 2.347-2.1 3.892-2.312 1.503-.21 3.176.054 4.346 1.086.536.45.877 1.08 1.244 1.66 1.1-1.54 2.86-2.62 4.76-2.78 1.694-.15 3.6.24 4.742 1.59 1.103 1.31 1.335 3.1 1.353 4.76-.004 3.48.007 6.95-.008 10.43-1.19-.07-2.45.2-3.57-.29-.87-.41-1.02-1.47-1-2.33 0-2.53.01-5.07 0-7.61-.05-.79-.16-1.81-.98-2.19-1.06-.42-2.29-.01-3.07.78-1.03 1.04-1.46 2.53-1.53 3.95 0 2.56-.01 5.12 0 7.69-1.53.02-3.06 0-4.58.01 0-3.23-.01-6.47 0-9.7-.02-.8-.09-1.69-.65-2.32-.55-.64-1.52-.67-2.26-.43-1.04.38-1.74 1.357-2.14 2.347-.49 1.16-.57 2.44-.58 3.684v6.43c-1.494 0-2.987 0-4.48-.005V7.495c1.167.056 2.44-.21 3.514.37.61.322.79 1.03.956 1.642zM143.056 7.27c2.71-.477 5.693.15 7.745 2.05 3.36 3.047 3.55 8.827.5 12.152-3.29 3.617-9.72 3.626-12.99-.023-2.97-3.3-2.83-8.97.41-12.03 1.19-1.14 2.73-1.88 4.34-2.16zm.738 3.998c-1.024.26-1.91.99-2.392 1.928-.95 1.89-.76 4.47.823 5.97 1.44 1.38 3.987 1.294 5.358-.15.893-.927 1.25-2.254 1.206-3.516-.01-1.398-.6-2.862-1.77-3.675-.93-.663-2.14-.816-3.23-.557zm-21.48-1.587c2.32-2.32 5.933-3.04 9.057-2.22 1.21.34 2.48.9 3.16 2.02.68 1.11.32 2.46.41 3.68-.94-.02-1.88.04-2.82-.02-.66-.07-1.1-.64-1.3-1.23-.14-.45-.64-.6-1.04-.72-1.67-.39-3.58.33-4.5 1.8-.89 1.42-.99 3.31-.3 4.84.68 1.5 2.32 2.38 3.92 2.42 1.93.1 3.73-.96 5.01-2.32.66 1.1 1.33 2.19 1.98 3.29-3.24 3.768-9.63 4.205-13.29.81-3.432-3.1-3.52-9.07-.245-12.31zm-6.59 9.01c1.583-.49 3.384.77 3.47 2.43.164 1.46-1.01 2.89-2.477 2.99-1.447.19-2.883-.97-3.008-2.42-.19-1.32.71-2.67 2.01-2.99z"/></g></svg>