<svg xmlns="http://www.w3.org/2000/svg" width="154" height="44" viewBox="0 0 154 44"><g fill="none"><path fill="#072F54" d="M74.17 34.39h-4.76c-.024 0-.037-.003-.048-.02l-4.105-5.01-4.106 5.01c-.01.017-.02.02-.04.02h-3.82c-.02 0-.04-.012-.05-.037 0-.014 0-.04.01-.06l6.05-7.423-5.97-7.354c-.02-.024-.02-.047-.01-.07.01-.014.035-.035.054-.035h4.766c.017 0 .037.01.05.03l3.6 4.47 3.662-4.46c.01-.02.03-.02.047-.02h3.882c.02 0 .04.02.05.038.01.024.01.05-.01.07l-5.67 6.81 6.48 7.968c.014.02.02.047.01.06-.01.026-.03.038-.05.038m25.774-12.34c-2.11 0-3.55 1.28-3.96 3.505h7.173v-.148c0-1.78-1.315-3.36-3.218-3.36m6.91 5.79c-.012.01-.033.024-.053.024h-10.9c.23 2.54 1.873 3.985 4.54 3.985 1.644 0 3.39-.56 5.852-1.87.048-.025.095.01.095.06l-.007 3.353c0 .03-.013.05-.032.055-2.295.97-4.597 1.63-6.407 1.63-4.693 0-8.1-3.42-8.1-8.135 0-4.71 3.4-8.13 8.095-8.13 4.28 0 7.03 2.887 7.03 6.855 0 .64-.11 2.132-.115 2.18m22.14-11.527c-1.335 0-2.423-1.07-2.423-2.39 0-1.353 1.09-2.454 2.428-2.454s2.425 1.1 2.425 2.46c0 1.313-1.09 2.384-2.427 2.384zm-1.96 18.07c-.04 0-.06-.02-.06-.06V19.49c0-.03.02-.057.05-.064h3.936c.03.005.05.03.05.06v14.85c0 .037-.03.06-.06.06h-3.912zm-45.68-2.25c-.71 0-1.436-.102-2.27-.324l.008-9.53c.976-.31 1.83-.46 2.672-.46 2.73 0 4.56 2.017 4.56 5.007 0 3.226-1.95 5.31-4.97 5.31m1.07-13.35c-1.11 0-2.234.203-3.41.608h-3.92c-.035 0-.055.028-.055.06v24.363c1.18-.162 2.63-.582 4.04-1.586v-7.41c.962.136 1.76.227 2.53.227 5.366 0 8.838-3.215 8.838-8.196 0-4.746-3.303-8.062-8.028-8.062m37.44 12.11c-1.226.645-2.32.95-3.35.95-2.432 0-3.887-1.716-3.887-4.594 0-3.32 1.86-5.47 4.735-5.47.793 0 1.565.2 2.504.62v8.51zm0-19.373v7.777c-1.148-.33-2.16-.48-3.183-.48-4.67 0-8.195 3.52-8.195 8.2 0 4.65 3.11 8.03 7.39 8.03 1.48 0 2.868-.38 4.5-1.22l-.004 1.34c1.077-.21 2.315-.64 3.534-1.5V9.95c-1.197.16-2.618.562-4.04 1.59zm24.78 19.344c-1.185.682-2.203 1.013-3.11 1.013-2.603 0-4.162-1.72-4.162-4.6 0-3.28 1.836-5.48 4.566-5.48.73 0 1.61.28 2.7.85v8.2zm4.047-11.66c0-.09-.078-.163-.17-.163l-3.18.005c-.095 0-.175.08-.175.17v.544h-.08c-1.47-.644-2.723-.943-3.956-.943-4.4 0-7.85 3.654-7.85 8.33 0 4.726 3.09 7.896 7.69 7.896 1.23 0 2.81-.085 4.28-1.783V35.2c1.04-.223 2.28-.666 3.44-1.507l.01-14.46zM46.397 30.677l9.883-.004c-.147 1.107-.522 2.4-1.38 3.718H44.62c-1.26 0-2.295-.97-2.418-2.21-.006-.01-.014-.03-.015-.05v-19.5c0-.01.01-.03.015-.04.123-1.23 1.158-2.21 2.417-2.21h.11l11.53-.003c-.16 1.103-.53 2.427-1.39 3.743h-8.48v5.306h8.39c.03 0 .06.025.06.06v3.68c0 .03-.03.06-.06.06h-8.39v7.454zm-12.373 4.02c-.977 0-1.58-.763-1.58-1.698 0-1 .69-1.7 1.58-1.7.88 0 1.57.69 1.57 1.69s-.69 1.7-1.57 1.7m0-3.59c-1 0-1.856.75-1.856 1.882 0 1.075.772 1.884 1.856 1.884.988 0 1.846-.75 1.846-1.884s-.858-1.885-1.846-1.885"/><path fill="#072F54" d="M33.58 32.84v-.685h.465c.236 0 .514.033.514.32 0 .34-.26.366-.55.366h-.43zm1.32-.32c0-.452-.276-.642-.813-.642h-.847v2.233h.368v-.95h.342l.58.96h.414l-.626-.98c.337-.04.583-.2.583-.61zm117.06-10.636c-.98 0-1.584-.764-1.584-1.698 0-1 .692-1.698 1.584-1.698.878 0 1.57.697 1.57 1.698 0 1-.692 1.698-1.57 1.698m0-3.587c-1 0-1.857.753-1.857 1.89 0 1.072.772 1.88 1.857 1.88.985 0 1.843-.748 1.843-1.88 0-1.137-.858-1.89-1.843-1.89"/><path fill="#072F54" d="M151.513 20.03v-.686h.464c.236 0 .513.033.513.318 0 .342-.257.368-.546.368h-.43zm1.32-.32c0-.452-.277-.644-.814-.644h-.85V21.3h.36v-.955h.34l.58.955h.41l-.63-.98c.333-.04.582-.206.582-.61zm-131.56-5.613l-.716-2.03-6.08-8.122 1.092-.272 10.48 9.06 6.16-1.764c.72-.19 1.54-.23 2.17-.23-1.94-4.18-5.49-7.62-10.17-9.28C14.96-1.84 4.78 3 1.49 12.26.47 15.13.23 18.085.658 20.898l14.774-5.13 5.84-1.67zm13.773-1.75c-.542.35-1.337.813-2.127 1.065l-6.19 1.765-4.13 13.24-1.07.348.87-10.112-.49-2.1-5.79 1.654L.82 21.81C2.038 27.7 6.208 32.836 12.288 35c9.26 3.302 19.436-1.538 22.732-10.795 1.42-3.992 1.326-8.152.025-11.86"/><path fill="#FBC108" d="M21.926 16.55l.487 2.1-.873 10.113 1.072-.348 4.124-13.24 6.182-1.766c.79-.26 1.585-.72 2.127-1.07-.19-.55-.408-1.08-.65-1.6-.628-.01-1.45.03-2.173.22l-6.17 1.76L15.57 3.67l-1.092.27 6.08 8.125.717 2.03-5.84 1.668L.66 20.895c.047.306.1.612.162.914l15.313-3.61 5.79-1.66z"/></g></svg>