<svg xmlns="http://www.w3.org/2000/svg" width="190" height="37" viewBox="0 0 190 37"><g fill="none"><path fill="#221E1F" d="M47.01 10.097v8.47h9.773v-8.47h2.606V30.4h-2.61v-9.446h-9.77V30.4H44.4V10.097h2.605zm29.316 12.92c0 5.43-3.692 7.71-7.275 7.71-3.9 0-6.94-2.933-6.94-7.493 0-4.885 3.15-7.708 7.17-7.708 4.24 0 7.06 3.04 7.06 7.49zm-11.51.11c0 3.147 1.847 5.644 4.453 5.644 2.49 0 4.45-2.38 4.45-5.64 0-2.49-1.2-5.64-4.35-5.64-3.15 0-4.56 2.93-4.56 5.65zM78.93 19.76c0-1.52 0-2.714-.106-3.91h2.28l.108 2.39h.22c.867-1.41 2.17-2.714 4.56-2.714 1.953 0 3.473 1.194 4.124 2.93.435-.867.977-1.41 1.63-1.845.867-.65 1.845-.97 3.256-.97 1.954 0 4.777 1.31 4.777 6.3v8.47h-2.61v-8.25c0-2.82-.98-4.45-3.15-4.45-1.52 0-2.72 1.09-3.15 2.39-.11.33-.22.87-.22 1.3v9.01h-2.6v-8.69c0-2.28-.98-4.01-3.04-4.01-1.63 0-2.82 1.31-3.26 2.61-.11.44-.22.87-.22 1.31v8.79h-2.6V19.76zm25.95 3.69c.11 3.693 2.39 5.104 5.104 5.104 1.954 0 3.04-.325 4.126-.76l.433 1.955c-.977.43-2.606.97-4.886.97-4.56 0-7.274-3.04-7.274-7.49s2.606-8.04 6.948-8.04c4.89 0 6.19 4.23 6.19 6.95 0 .54-.11.97-.11 1.3h-10.53zm7.927-1.953c0-1.737-.76-4.343-3.692-4.343-2.714 0-3.908 2.497-4.125 4.343h7.816z"/><path fill="#2A6EBB" d="M121.49 23.886l-2.17 6.514h-2.714l7.057-20.63h3.257l7.057 20.63h-2.823l-2.17-6.514h-7.493zm6.733-2.063l-2.063-5.972c-.434-1.3-.76-2.6-1.086-3.8h-.108c-.326 1.2-.652 2.5-1.086 3.7l-2.063 5.97c.217.11 6.406.11 6.406.11zm8.25-6.297l1.956 7.49c.43 1.63.86 3.15 1.08 4.67h.11c.32-1.52.86-3.04 1.3-4.67l2.39-7.49h2.28l2.28 7.383c.54 1.73.97 3.36 1.3 4.88h.11c.21-1.52.65-3.04 1.19-4.78l2.06-7.49h2.71l-4.77 14.88h-2.5l-2.28-7.06c-.55-1.63-.98-3.15-1.31-4.89-.33 1.73-.87 3.36-1.31 4.88l-2.39 7.06h-2.5l-4.45-14.88h2.712zm31.053 11.29c0 1.304.108 2.498.217 3.584h-2.497l-.217-1.846c-.87 1.195-2.39 2.172-4.56 2.172-3.04 0-4.56-2.172-4.56-4.235 0-3.58 3.14-5.53 8.9-5.53v-.32c0-1.19-.33-3.47-3.37-3.47-1.41 0-2.83.44-3.91 1.09l-.65-1.73c1.19-.76 3.04-1.3 4.88-1.3 4.56 0 5.64 3.04 5.64 6.08l.11 5.54zM164.92 22.8c-2.93-.11-6.297.434-6.297 3.366 0 1.737 1.194 2.605 2.497 2.605 1.954 0 3.15-1.19 3.583-2.49.108-.32.108-.54.108-.87V22.8h.11zm7.057-7.274l3.257 8.794c.326.977.652 2.17.977 3.04h.11c.22-.87.55-2.063.98-3.04l2.93-8.686h2.82l-4.01 10.532c-1.73 4.45-3.04 7.057-5.1 8.903-1.3 1.19-2.6 1.62-3.36 1.73l-.65-2.28c.66-.22 1.52-.65 2.39-1.31.76-.55 1.63-1.63 2.28-3.04.11-.33.22-.55.22-.65 0-.11-.11-.33-.21-.76l-5.53-13.25H172zm17.263 1.628c0 1.086-.87 1.955-1.954 1.955-1.086 0-1.955-.87-1.955-1.96 0-1.09.87-1.96 2.07-1.96.98 0 1.85.87 1.85 1.95zm-3.474 0c0 .87.65 1.52 1.52 1.52.868 0 1.52-.65 1.52-1.52 0-.868-.652-1.52-1.52-1.52-.87 0-1.52.652-1.52 1.52zm1.194.977h-.434v-1.95c.217 0 .434-.1.76-.1.325 0 .543.11.65.11.11.11.218.22.218.44s-.217.44-.434.44c.217 0 .326.22.326.44.108.33.108.44.108.44h-.434c-.11-.11-.11-.22-.11-.43s-.107-.325-.433-.325h-.217v.974zm0-1.08h.217c.217 0 .434-.11.434-.32 0-.21-.1-.32-.43-.32h-.21v.65z"/><path fill="#FFF" d="M12.594 2.497L5.104 11.4v13.137l7.165-1.086s1.3-.21 1.41 1.09c.11 1.41-1.2 1.41-1.2 1.41l-7.49 1.2v2.72l15.85 2.83V11.73L12.59 2.5zm3.692 17.914c-.76 1.09-1.955 1.74-3.257 1.85h-.22c-1.3 0-2.5-.65-3.37-1.63-.87-.98-1.41-2.39-1.52-3.91v-.43c0-1.52.43-2.93 1.3-3.91.86-.97 1.95-1.73 3.25-1.84h.21c1.3 0 2.49.66 3.36 1.63.86.98 1.41 2.39 1.52 3.91v.44c0 1.52-.55 2.83-1.31 3.91zm7.708.55v5.11l3.8-.65v-4.89l-3.8.44zm-8.684-8.15c-.76-.86-1.63-1.3-2.607-1.3h-.11c-.976 0-1.844.54-2.496 1.41-.65.87-1.086 2.07-1.086 3.37v.33c.11 1.31.55 2.5 1.31 3.37.76.87 1.63 1.31 2.61 1.31h.11c.98 0 1.85-.54 2.5-1.41.65-.87 1.09-2.06 1.09-3.36v-.33c-.1-1.41-.54-2.6-1.3-3.36zm-5.32 3.7c-.11-1.95.976-3.69 2.387-3.8-.868.55-1.41 2.07-1.303 3.69.11 1.74.76 3.15 1.737 3.59-1.41.11-2.71-1.41-2.82-3.47zm19.324-2.71v4.88l3.15-.43v-4.78l-3.15.33zm0 11.29l3.15-.54v-4.78l-3.15.44v4.89z"/><path fill="#2A6EBB" d="M27.577 0H10.314L.217 11.943l3.583-.217v12.92l-2.714.434s-1.303.217-.977 1.63c.32.976 1.3.976 1.3.976l2.39-.435v3.48l17.04 3.04 13.46-3.04V11.95l3.69-.326L27.57 0zm-3.474 14.223l3.69-.326v4.886l-3.8.543.11-5.103zM4.993 29.857v-2.714l7.384-1.194s1.303 0 1.194-1.42c-.1-1.31-1.41-1.09-1.41-1.09L5 24.53V11.4l7.492-8.903 8.25 9.337V32.79C20.852 32.68 5 29.857 5 29.857zm19-3.8v-5.103l3.8-.543v4.89l-3.8.76zm8.36-1.52l-3.04.543v-4.886l3.15-.434v4.777h-.11zm-3.04-5.863V13.79l3.15-.327v4.777l-3.15.434z"/><path fill="#2A6BBE" d="M16.07 12.16c-.87-.977-2.064-1.63-3.367-1.63h-.217c-1.303.11-2.39.76-3.257 1.847-.76 1.086-1.31 2.39-1.31 3.91v.433c.11 1.52.65 2.93 1.52 3.91.87.976 2.06 1.627 3.36 1.627h.22c1.3-.108 2.38-.76 3.25-1.846.76-1.08 1.3-2.38 1.3-3.9v-.43c-.11-1.52-.66-2.93-1.52-3.91zm-.544 7.71c-.652.867-1.52 1.41-2.497 1.41h-.11c-.98 0-1.96-.543-2.61-1.303-.76-.868-1.2-2.063-1.31-3.366v-.32c0-1.3.43-2.49 1.08-3.36.65-.87 1.52-1.41 2.49-1.41h.11c.97 0 1.95.54 2.6 1.3.76.87 1.19 2.07 1.3 3.37v.33c0 1.31-.44 2.5-1.09 3.37zm-4.452-3.367c-.108-1.63.435-3.15 1.303-3.692-1.41.11-2.497 1.74-2.388 3.8.1 1.96 1.3 3.59 2.82 3.48-.98-.54-1.63-1.95-1.74-3.58z"/><path fill="#FFF" d="M24.103 14.223l3.69-.326v4.886l-3.8.543.11-5.103"/></g></svg>