<svg xmlns="http://www.w3.org/2000/svg" width="209" height="33" viewBox="0 0 209 33"><g fill="none" fillRule="evenodd"><g transform="translate(0 1.567)"><path fill="#FFF" fillRule="nonzero" d="M22.456 18.065c1.794 4.86 7.2 7.348 12.064 5.558 4.86-1.802 7.353-7.204 5.552-12.067C38.276 6.69 32.878 4.206 28.008 6c-4.866 1.8-7.35 7.2-5.552 12.065z"/><circle cx="10.448" cy="14.775" r="9.39" fill="#FFF" fillRule="nonzero"/><path fill="#BE3538" fillRule="nonzero" d="M12.048 14.675c0 .957-.777 1.74-1.734 1.74-.96 0-1.737-.783-1.737-1.74 0-.956.776-1.73 1.737-1.73.957 0 1.734.774 1.734 1.73z"/><path fill="#589442" fillRule="nonzero" d="M32.976 14.675c0 .957-.774 1.74-1.73 1.74-.965 0-1.738-.783-1.738-1.74 0-.956.773-1.73 1.737-1.73.957 0 1.73.774 1.73 1.73z"/><path fill="#000" fillRule="nonzero" d="M5.154 14.675c0 2.847 2.317 5.16 5.163 5.16 2.84 0 5.154-2.313 5.154-5.16 0-2.84-2.31-5.153-5.15-5.153-2.84.003-5.16 2.315-5.16 5.153zm1.78 0c0-1.862 1.52-3.377 3.386-3.377 1.862 0 3.375 1.518 3.375 3.377 0 1.868-1.513 3.385-3.375 3.385-1.865.002-3.387-1.514-3.387-3.385zm19.15 0c0 2.847 2.313 5.16 5.16 5.16 2.84 0 5.152-2.313 5.152-5.16 0-2.84-2.312-5.153-5.153-5.153-2.844.003-5.16 2.315-5.16 5.153zm1.78 0c0-1.862 1.516-3.377 3.382-3.377 1.862 0 3.374 1.518 3.374 3.377 0 1.868-1.512 3.385-3.374 3.385-1.868.002-3.383-1.514-3.383-3.385z"/><path d="M24.318 19.384c.846 1.292 2.02 2.334 3.457 2.997 2.023.94 4.29 1.03 6.378.26 4.313-1.6 6.53-6.4 4.935-10.71-1.594-4.31-6.395-6.52-10.71-4.93-2.09.77-3.753 2.32-4.687 4.34-.62 1.36-.83 2.82-.69 4.27"/><path fill="#FFD881" fillRule="nonzero" d="M27.646 5.01c1.088-.4 2.2-.595 3.3-.625-2.994-1.34-6.382-2.02-10.136-2.02-3.725 0-7.162.696-10.153 1.974 5.414.1 9.816 4.34 10.196 9.69.092-1.23.39-2.44.92-3.59C22.943 7.9 25.03 5.97 27.646 5z"/><path fill="#000" fillRule="nonzero" d="M39.66 8.605c.49-2.095 2.044-4.193 2.044-4.193l-6.973-.005C30.82 1.882 26.08.544 20.82.544c-5.46 0-10.39 1.37-14.28 3.913L0 4.463s1.536 2.074 2.033 4.155C.763 10.346.006 12.47.006 14.778c0 5.755 4.686 10.438 10.445 10.438 3.3 0 6.23-1.535 8.15-3.918l2.23 3.33 2.24-3.358c1.01 1.28 2.31 2.322 3.84 3.027 2.54 1.166 5.38 1.28 7.99.315 5.41-1.998 8.18-8.022 6.18-13.418-.35-.95-.83-1.815-1.4-2.59zM20.812 2.368c3.753 0 7.142.68 10.135 2.02-1.1.03-2.21.226-3.3.624-2.616.965-4.704 2.893-5.868 5.43-.53 1.15-.83 2.362-.93 3.59-.38-5.344-4.79-9.584-10.2-9.694 2.99-1.277 6.43-1.97 10.15-1.97zm-3.46 17.073c-1.5 2.22-4.036 3.67-6.904 3.67-4.598 0-8.34-3.74-8.34-8.33 0-4.6 3.744-8.34 8.34-8.34 4.597 0 8.338 3.74 8.338 8.34 0 .28-.055.55-.083.82-.14 1.41-.593 2.73-1.35 3.85zm16.8 3.2c-2.088.77-4.354.69-6.377-.25-1.436-.66-2.61-1.71-3.457-3-.345-.52-.65-1.08-.872-1.68-.254-.68-.38-1.39-.45-2.11-.14-1.44.07-2.91.695-4.26.94-2.02 2.6-3.56 4.69-4.33 4.32-1.59 9.12.62 10.71 4.938 1.59 4.313-.62 9.115-4.93 10.71z"/></g><g fillRule="nonzero"><path fill="#589442" d="M149.786 3.78c0 1.113.906 2.015 2.017 2.015 1.118 0 2.017-.902 2.017-2.015 0-1.11-.902-2.02-2.017-2.02-1.11 0-2.017.91-2.017 2.02z"/><path fill="#000" d="M54.022 3.637l-3.058 1.057v3.988h-3.388v2.675h3.296v8.587c0 4.08 1.39 5.754 4.806 5.754.867 0 1.694-.106 2.525-.333l.135-.033-.038-2.774-.233.09c-.673.23-1.198.345-1.604.345-1.604 0-2.2-.902-2.2-3.34V11.36h3.91V8.682h-3.91V3.56l-.24.077zm10.568 7.755v-2.71h-3.1v16.722h3.39V17.01c0-3.518 1.478-5.457 4.158-5.457.39 0 .765.058 1.224.188l.22.07.11-3.3-1.458-.11c-1.965 0-3.553 1.06-4.543 3zm24.2-3.102c-2.326 0-4.282 1.1-5.588 3.105V8.68h-3.1v23.533h3.393V23.09c1.224 1.665 2.98 2.58 5.164 2.58 4.28 0 7.05-3.517 7.05-8.948 0-5.045-2.79-8.433-6.93-8.433zm-.946 14.636c-2.683 0-4.35-2.293-4.35-5.977 0-3.56 1.76-5.86 4.48-5.86 2.622 0 4.19 2.18 4.19 5.82 0 3.7-1.657 6.01-4.32 6.01z"/><path fill="#589442" d="M105.627 8.29c-2.073 0-3.89.39-5.556 1.19l-.1.05.04 2.896.27-.15c1.6-.89 3.1-1.345 4.48-1.345 2.46 0 3.87 1.41 3.87 3.87v.14h-1.94c-5.58 0-8.65 2.03-8.65 5.69 0 2.95 2.22 5.01 5.39 5.01 2.338 0 4.145-.92 5.43-2.64v2.42h3.067V15.29c0-4.64-2.11-6.994-6.275-6.994zm2.977 10.054c0 2.88-1.733 4.743-4.414 4.743-1.643 0-2.788-1.08-2.788-2.623 0-2.03 1.94-3.144 5.46-3.144h1.746c-.004.262-.004 1.024-.004 1.024zM126.3.696V10.95c-1.25-1.738-2.99-2.66-5.224-2.66-4.148 0-6.936 3.417-6.936 8.493 0 5.23 2.827 8.88 6.867 8.88 2.393 0 4.26-1.06 5.554-3.12v2.86h3.14V.697h-3.4zm-4.414 22.163c-2.584 0-4.19-2.26-4.19-5.88 0-3.64 1.62-5.98 4.13-5.98 2.8 0 4.472 2.23 4.472 5.98.003 3.57-1.724 5.88-4.412 5.88zm22.96-14.18l-4.81 9.65-4.442-9.66h-3.82l8.194 16.72 8.417-16.73m4.937 0h-3.21V25.4h3.393V8.68m3.975 4.288c0 2.353 1.617 3.59 4.602 5.05 1.883.926 2.865 1.47 2.865 2.775 0 1.337-1.207 2.2-3.082 2.2-1.326 0-2.798-.373-4.255-1.09l-.248-.12-.11 2.947.113.042c1.393.555 2.86.826 4.37.826 4.148 0 6.826-1.976 6.826-5.035 0-2.55-1.69-3.844-4.63-5.216-2.15-1.01-3.05-1.6-3.05-2.672 0-1.015 1.01-1.677 2.56-1.677 1.4 0 2.77.312 4.07.93l.25.113.15-2.88-.13-.04c-1.4-.41-2.79-.62-4.123-.62-3.674 0-6.144 1.8-6.144 4.48zm21.66-4.678c-5.095 0-8.26 3.354-8.26 8.75 0 5.4 3.168 8.75 8.26 8.75 5.12 0 8.3-3.35 8.3-8.75 0-5.394-3.182-8.75-8.3-8.75zm.03 14.733c-2.815 0-4.707-2.416-4.707-6.015 0-3.617 1.892-6.043 4.708-6.043 2.87 0 4.72 2.375 4.72 6.043 0 3.655-1.84 6.015-4.71 6.015zm14.525-11.63v-2.71h-3.1v16.72h3.39V17.01c0-3.518 1.47-5.457 4.153-5.457.386 0 .76.058 1.21.188l.23.07.104-3.3-1.453-.11c-1.96 0-3.55 1.06-4.54 3z"/><path fill="#000" d="M76.636 8.68h-3.21v16.724h3.392V8.68m-3.72-4.9c0 1.113.907 2.015 2.016 2.015 1.113 0 2.017-.902 2.017-2.015 0-1.11-.9-2.02-2.01-2.02-1.11 0-2.01.91-2.01 2.02z"/><path fill="#ABC99F" d="M207.77 7.94c.558.563.85 1.313.85 2.118 0 .842-.316 1.595-.894 2.15-.603.574-1.352.88-2.133.88-.816 0-1.567-.32-2.152-.924-.55-.578-.87-1.318-.87-2.108 0-.805.32-1.585.92-2.178.57-.552 1.29-.852 2.11-.852.84 0 1.6.316 2.18.915zm-3.904.333c-.49.49-.75 1.12-.75 1.785 0 .65.24 1.244.71 1.72.468.49 1.09.755 1.756.755.65 0 1.27-.25 1.752-.717.474-.454.734-1.078.734-1.76 0-.666-.242-1.27-.7-1.734-.482-.49-1.093-.748-1.773-.748-.673 0-1.26.24-1.73.7zm1.782.056c.948 0 1.436.34 1.436.96 0 .43-.254.76-.707.89l.746 1.46h-1.01l-.622-1.32h-.26v1.31h-.91V8.32h1.34zm-.426 1.46h.318c.407 0 .603-.14.603-.43 0-.33-.205-.46-.652-.46h-.26v.89z"/></g></g></svg>